# xmcd
#
# Track frame offsets:
#	182
#	17027
#	30265
#	44257
#	58545
#	76850
#	94922
#	111325
#	128645
#	141455
#
# Disc length: 2083 seconds
#
# Revision: 2
# Processed by: cddbd v1.4PL0 Copyright (c) Steve Scherf et al.
# Submitted via: MusicManager 7.0.3.0 
#
DISCID=7c08210a
DTITLE=Various Artist - CMA awards horizon of country music
DYEAR=1995
DGENRE=Country
TTITLE0=Turn it loose
TTITLE1=Straight Tequila Night
TTITLE2=If I didn't have you
TTITLE3=Drive South
TTITLE4=I love the way you love me
TTITLE5=Almost Good bye
TTITLE6=Lovin' Only Me
TTITLE7=Keep It Between the LInes
TTITLE8=You Really Had Me Going
TTITLE9=Thank God For You
EXTD=ID3G:   2
EXTT0=
EXTT1=
EXTT2=
EXTT3=
EXTT4=
EXTT5=
EXTT6=
EXTT7=
EXTT8=
EXTT9=
PLAYORDER=
